<?xml version="1.0" encoding="UTF-8" standalone="no"?>
<svg width="512" height="512" viewBox="0 0 512 512" fill="none" xmlns="http://www.w3.org/2000/svg">
  <!-- Background is transparent -->
  <rect width="512" height="512" fill="transparent"/>
  
  <!-- The Symera logo centered in a square with horizontal padding -->
  <g transform="translate(106, 56) scale(0.75)">
    <!-- Top curved checkmark - gradient from orange to red -->
    <path d="M400 100C400 44.7715 355.228 0 300 0H50C22.3858 0 0 22.3858 0 50V250C0 277.614 22.3858 300 50 300H150C177.614 300 200 277.614 200 250V200C200 172.386 222.386 150 250 150H350C377.614 150 400 127.614 400 100Z" fill="url(#paint0_linear)"/>
    
    <!-- Bottom curved check - gradient from orange to red -->
    <path d="M400 300C400 272.386 377.614 250 350 250H250C222.386 250 200 272.386 200 300V350C200 377.614 177.614 400 150 400H50C22.3858 400 0 377.614 0 350V500C0 527.614 22.3858 550 50 550H300C355.228 550 400 505.228 400 450V300Z" fill="url(#paint1_linear)"/>
    
    <!-- Gradient definitions -->
    <defs>
      <linearGradient id="paint0_linear" x1="0" y1="0" x2="400" y2="300" gradientUnits="userSpaceOnUse">
        <stop stop-color="#FF8A00"/>
        <stop offset="1" stop-color="#FF3D00"/>
      </linearGradient>
      <linearGradient id="paint1_linear" x1="0" y1="250" x2="400" y2="550" gradientUnits="userSpaceOnUse">
        <stop stop-color="#FF8A00"/>
        <stop offset="1" stop-color="#FF3D00"/>
      </linearGradient>
    </defs>
  </g>
</svg>