<?xml version="1.0" encoding="UTF-8" standalone="no"?>
<svg width="64" height="64" viewBox="0 0 64 64" xmlns="http://www.w3.org/2000/svg">
  <!-- Fundo transparente que define a área quadrada -->
  <rect width="64" height="64" fill="transparent"/>
  
  <!-- Logo do Symera centralizado com margens laterais -->
  <g transform="translate(12, 4)">
    <!-- Parte superior do logo - gradiente laranja para vermelho -->
    <path d="M40 10C40 4.47715 35.5228 0 30 0H5C2.23858 0 0 2.23858 0 5V25C0 27.7614 2.23858 30 5 30H15C17.7614 30 20 27.7614 20 25V20C20 17.2386 22.3858 15 25 15H35C37.7614 15 40 12.7614 40 10Z" fill="url(#paint0_linear)"/>
    
    <!-- Parte inferior do logo - gradiente laranja para vermelho -->
    <path d="M40 30C40 27.2386 37.7614 25 35 25H25C22.3858 25 20 27.2386 20 30V35C20 37.7614 17.7614 40 15 40H5C2.23858 40 0 37.7614 0 35V50C0 52.7614 2.23858 55 5 55H30C35.5228 55 40 50.5228 40 45V30Z" fill="url(#paint1_linear)"/>
    
    <!-- Definição dos gradientes -->
    <defs>
      <linearGradient id="paint0_linear" x1="0" y1="0" x2="40" y2="30" gradientUnits="userSpaceOnUse">
        <stop stop-color="#FF8A00"/>
        <stop offset="1" stop-color="#FF3D00"/>
      </linearGradient>
      <linearGradient id="paint1_linear" x1="0" y1="25" x2="40" y2="55" gradientUnits="userSpaceOnUse">
        <stop stop-color="#FF8A00"/>
        <stop offset="1" stop-color="#FF3D00"/>
      </linearGradient>
    </defs>
  </g>
</svg>